<?xml version="1.0" encoding="UTF-8" standalone="no"?>
<!-- Created with Inkscape (http://www.inkscape.org/) -->
<svg
   xmlns:dc="http://purl.org/dc/elements/1.1/"
   xmlns:cc="http://web.resource.org/cc/"
   xmlns:rdf="http://www.w3.org/1999/02/22-rdf-syntax-ns#"
   xmlns:svg="http://www.w3.org/2000/svg"
   xmlns="http://www.w3.org/2000/svg"
   xmlns:sodipodi="http://sodipodi.sourceforge.net/DTD/sodipodi-0.dtd"
   xmlns:inkscape="http://www.inkscape.org/namespaces/inkscape"
   width="275"
   height="220"
   id="svg5433"
   sodipodi:version="0.32"
   inkscape:version="0.44.1"
   version="1.0"
   sodipodi:docbase="/Users/bdesham/Desktop"
   sodipodi:docname="Infinite square well.svg">
  <defs
     id="defs5435">
    <marker
       inkscape:stockid="Arrow1Mend"
       orient="auto"
       refY="0"
       refX="0"
       id="Arrow1Mend"
       style="overflow:visible">
      <path
         id="path2922"
         d="M 0,0 L 5,-5 L -12.5,0 L 5,5 L 0,0 z "
         style="fill-rule:evenodd;stroke:black;stroke-width:1pt;marker-start:none"
         transform="matrix(-0.4,0,0,-0.4,-4,0)" />
    </marker>
    <marker
       inkscape:stockid="Arrow1Mstart"
       orient="auto"
       refY="0"
       refX="0"
       id="Arrow1Mstart"
       style="overflow:visible">
      <path
         id="path2925"
         d="M 0,0 L 5,-5 L -12.5,0 L 5,5 L 0,0 z "
         style="fill-rule:evenodd;stroke:black;stroke-width:1pt;marker-start:none"
         transform="matrix(0.4,0,0,0.4,4,0)" />
    </marker>
    <marker
       inkscape:stockid="Arrow1Sstart"
       orient="auto"
       refY="0"
       refX="0"
       id="Arrow1Sstart"
       style="overflow:visible">
      <path
         id="path2919"
         d="M 0,0 L 5,-5 L -12.5,0 L 5,5 L 0,0 z "
         style="fill-rule:evenodd;stroke:black;stroke-width:1pt;marker-start:none"
         transform="matrix(0.2,0,0,0.2,1.2,0)" />
    </marker>
  </defs>
  <sodipodi:namedview
     id="base"
     pagecolor="#ffffff"
     bordercolor="#666666"
     borderopacity="1.0"
     gridtolerance="10000"
     guidetolerance="10"
     objecttolerance="10"
     inkscape:pageopacity="0.0"
     inkscape:pageshadow="2"
     inkscape:zoom="1"
     inkscape:cx="135.61718"
     inkscape:cy="112.41077"
     inkscape:document-units="cm"
     inkscape:current-layer="layer1"
     inkscape:grid-points="true"
     inkscape:grid-bbox="false"
     gridspacingx="0.5cm"
     gridspacingy="0.5cm"
     grid_units="cm"
     showgrid="false"
     height="220px"
     width="275px"
     inkscape:window-width="1068"
     inkscape:window-height="782"
     inkscape:window-x="0"
     inkscape:window-y="22" />
  <metadata
     id="metadata5438">
    <rdf:RDF>
      <cc:Work
         rdf:about="">
        <dc:format>image/svg+xml</dc:format>
        <dc:type
           rdf:resource="http://purl.org/dc/dcmitype/StillImage" />
      </cc:Work>
    </rdf:RDF>
  </metadata>
  <g
     inkscape:label="Layer 1"
     inkscape:groupmode="layer"
     id="layer1"
     transform="translate(-86.08268,-424.9)">
    <path
       style="fill:#babdb6;fill-opacity:1;stroke:none;stroke-width:2;stroke-linecap:butt;stroke-linejoin:miter;stroke-miterlimit:4;stroke-dashoffset:0;stroke-opacity:1"
       d="M 267.73128,445.3241 L 356.11313,445.3241 C 356.16876,445.3241 356.21355,445.36889 356.21355,445.42452 L 356.21355,622.38903 C 356.21355,622.44466 356.16876,622.48945 356.11313,622.48945 L 267.73128,622.48945 C 267.67565,622.48945 267.63087,622.44466 267.63087,622.38903 L 267.63087,445.42452 C 267.63087,445.36889 267.67565,445.3241 267.73128,445.3241 z "
       id="rect2825" />
    <path
       style="fill:#babdb6;fill-opacity:1;stroke:none;stroke-width:2;stroke-linecap:butt;stroke-linejoin:miter;stroke-miterlimit:4;stroke-dashoffset:0;stroke-opacity:1"
       d="M 90.565913,445.3241 L 178.94776,445.3241 C 179.00339,445.3241 179.04818,445.36889 179.04818,445.42452 L 179.04818,622.38903 C 179.04818,622.44466 179.00339,622.48945 178.94776,622.48945 L 90.565913,622.48945 C 90.510282,622.48945 90.465496,622.44466 90.465496,622.38903 L 90.465496,445.42452 C 90.465496,445.36889 90.510282,445.3241 90.565913,445.3241 z "
       id="rect2823" />
    <path
       id="path2817"
       d="M 90.476566,621.50453 L 90.476566,623.50453 L 356.22657,623.50453 L 356.22657,621.50453 L 90.476566,621.50453 z "
       style="fill:black;fill-opacity:1;stroke:none;stroke-width:2;stroke-linecap:butt;stroke-linejoin:miter;stroke-miterlimit:4;stroke-dashoffset:0;stroke-opacity:1" />
    <path
       id="path2833"
       d="M 98.465493,622.48946 L 102.4655,618.48946 L 88.465493,622.48946 L 102.4655,626.48946 L 98.465493,622.48946 z "
       style="fill-rule:evenodd;stroke:black;stroke-width:0.8pt;marker-start:none" />
    <path
       id="path2835"
       d="M 348.21353,622.48946 L 344.21353,626.48946 L 358.21353,622.48946 L 344.21353,618.48946 L 348.21353,622.48946 z "
       style="fill-rule:evenodd;stroke:black;stroke-width:0.8pt;marker-start:none" />
    <path
       id="path2819"
       d="M 177.88282,445.06703 C 177.88282,445.06703 177.88283,445.0661 177.88282,622.31702 L 180.22657,622.31702 C 180.22657,533.69157 180.22657,489.37964 180.22657,467.22328 C 180.22657,456.14509 180.22657,450.61782 180.22657,447.84827 C 180.22657,446.4635 180.22657,445.75696 180.22657,445.41078 C 180.22657,445.23767 180.22657,445.1728 180.22657,445.12952 C 180.22657,445.10788 180.22657,445.07244 180.22657,445.06703 L 177.88282,445.06703 z "
       style="fill:black;fill-opacity:1;stroke:none;stroke-width:2.33339906;stroke-linecap:butt;stroke-linejoin:miter;stroke-miterlimit:4;stroke-dashoffset:0;stroke-opacity:1" />
    <path
       id="path2851"
       d="M 179.04817,454.40544 L 183.71497,459.07224 L 179.04817,442.73845 L 174.38137,459.07224 L 179.04817,454.40544 z "
       style="fill-rule:evenodd;stroke:black;stroke-width:0.93335962pt;marker-start:none" />
    <path
       id="path2821"
       d="M 266.47657,445.06703 L 266.47657,622.31702 L 268.78907,622.31702 L 268.78907,445.06703 L 266.47657,445.06703 z "
       style="fill:black;fill-opacity:1;stroke:none;stroke-width:2.33339906;stroke-linecap:butt;stroke-linejoin:miter;stroke-miterlimit:4;stroke-dashoffset:0;stroke-opacity:1" />
    <path
       id="path2843"
       d="M 267.63085,454.40544 L 272.29765,459.07224 L 267.63085,442.73845 L 262.96405,459.07224 L 267.63085,454.40544 z "
       style="fill-rule:evenodd;stroke:black;stroke-width:0.93335962pt;marker-start:none" />
    <path
       style="font-size:20px;font-style:italic;font-weight:normal;text-align:center;text-anchor:middle;fill:black;fill-opacity:1;stroke:none;stroke-width:1px;stroke-linecap:butt;stroke-linejoin:miter;stroke-opacity:1;font-family:DejaVu Serif"
       d="M 179.67805,641.5224 C 180.67413,641.5224 181.41958,640.97553 181.91438,639.88178 C 182.40916,638.78803 182.65655,637.13765 182.65656,634.93061 C 182.65655,632.71707 182.40916,631.06343 181.91438,629.96967 C 181.41958,628.87593 180.67413,628.32906 179.67805,628.32904 C 178.68195,628.32906 177.93651,628.87593 177.44172,629.96967 C 176.94692,631.06343 176.69953,632.71707 176.69953,634.93061 C 176.69953,637.13765 176.94692,638.78803 177.44172,639.88178 C 177.93651,640.97553 178.68195,641.5224 179.67805,641.5224 M 179.67805,642.48921 C 178.09601,642.48921 176.85903,641.82515 175.96711,640.49701 C 175.08169,639.16889 174.63898,637.31342 174.63898,634.93061 C 174.63898,632.54129 175.08169,630.68258 175.96711,629.35443 C 176.85903,628.02632 178.09601,627.36226 179.67805,627.36225 C 181.26658,627.36226 182.50356,628.02632 183.38898,629.35443 C 184.27439,630.68258 184.7171,632.54129 184.71711,634.93061 C 184.7171,637.31342 184.27439,639.16889 183.38898,640.49701 C 182.50356,641.82515 181.26658,642.48921 179.67805,642.48921"
       id="text2831" />
    <path
       style="font-size:20px;font-style:italic;font-weight:normal;text-align:center;text-anchor:middle;fill:black;fill-opacity:1;stroke:none;stroke-width:1px;stroke-linecap:butt;stroke-linejoin:miter;stroke-opacity:1;font-family:DejaVu Serif"
       d="M 261.249,642.20601 L 261.44431,641.17084 L 263.29978,641.17084 L 265.73142,628.67084 L 263.87595,628.67084 L 264.08103,627.62592 L 269.77439,627.62592 L 269.56931,628.67084 L 267.71384,628.67084 L 265.32127,641.00483 L 271.98142,641.00483 L 272.45017,638.56342 L 273.65134,638.56342 L 272.94822,642.20601 L 261.249,642.20601"
       id="text2835" />
    <path
       style="font-size:20px;font-style:italic;font-weight:normal;text-align:center;text-anchor:middle;fill:black;fill-opacity:1;stroke:none;stroke-width:1px;stroke-linecap:butt;stroke-linejoin:miter;stroke-opacity:1;font-family:DejaVu Serif"
       d="M 205.88834,602.45038 L 208.02702,613.64179 L 214.49186,602.45038 L 212.85123,602.45038 L 213.05631,601.40546 L 217.33366,601.40546 L 217.12858,602.45038 L 215.71256,602.45038 L 207.88053,615.98555 L 206.20084,615.98555 L 203.65202,602.45038 L 202.19694,602.45038 L 202.40202,601.40546 L 207.71452,601.40546 L 207.50944,602.45038 L 205.88834,602.45038 M 217.75358,606.94257 L 230.27311,606.94257 L 230.27311,608.50508 L 217.75358,608.50508 L 217.75358,606.94257 M 217.75358,610.92694 L 230.27311,610.92694 L 230.27311,612.48945 L 217.75358,612.48945 L 217.75358,610.92694 M 235.54655,613.66132 C 235.833,614.75507 236.47428,615.30194 237.47037,615.30194 C 238.46646,615.30194 239.31607,614.75507 240.0192,613.66132 C 240.72883,612.56757 241.29849,610.91718 241.72819,608.71016 C 242.15787,606.49662 242.22948,604.84297 241.94303,603.74921 C 241.66307,602.65548 241.02505,602.10861 240.02897,602.10858 C 239.03287,602.10861 238.18,602.65548 237.47037,603.74921 C 236.76725,604.84297 236.20084,606.49662 235.77116,608.71016 C 235.34147,610.91718 235.2666,612.56757 235.54655,613.66132 M 237.27506,616.26874 C 235.69303,616.26874 234.58626,615.60469 233.95475,614.27655 C 233.32975,612.94843 233.24837,611.09296 233.71061,608.71016 C 234.17285,606.32083 234.97688,604.46211 236.12272,603.13398 C 237.27506,601.80586 238.64224,601.1418 240.22428,601.14179 C 241.81281,601.1418 242.91958,601.80586 243.54459,603.13398 C 244.16958,604.46211 244.25096,606.32083 243.78873,608.71016 C 243.32648,611.09296 242.52245,612.94843 241.37662,614.27655 C 240.23078,615.60469 238.8636,616.26874 237.27506,616.26874"
       id="text2839" />
    <path
       style="font-size:20px;font-style:italic;font-weight:normal;text-align:center;text-anchor:middle;fill:black;fill-opacity:1;stroke:none;stroke-width:1px;stroke-linecap:butt;stroke-linejoin:miter;stroke-opacity:1;font-family:DejaVu Serif"
       d="M 116.08985,527.66162 L 118.22852,538.85303 L 124.69337,527.66162 L 123.05274,527.66162 L 123.25782,526.61671 L 127.53516,526.61671 L 127.33009,527.66162 L 125.91407,527.66162 L 118.08204,541.19678 L 116.40235,541.19678 L 113.85352,527.66162 L 112.39844,527.66162 L 112.60352,526.61671 L 117.91602,526.61671 L 117.71094,527.66162 L 116.08985,527.66162 M 127.95509,532.15382 L 140.47462,532.15382 L 140.47462,533.71631 L 127.95509,533.71631 L 127.95509,532.15382 M 127.95509,536.13819 L 140.47462,536.13819 L 140.47462,537.70069 L 127.95509,537.70069 L 127.95509,536.13819 M 151.5293,535.7378 C 151.85482,536.31723 152.23242,536.75343 152.66212,537.04639 C 153.0983,537.33285 153.58984,537.47608 154.13673,537.47608 C 154.79427,537.47608 155.33137,537.25798 155.74805,536.82178 C 156.16471,536.37908 156.37304,535.81593 156.37305,535.13233 C 156.37304,534.47478 156.18098,533.92791 155.79688,533.49171 C 155.41276,533.05552 154.93098,532.83741 154.35157,532.83741 C 153.82422,532.83741 153.3457,533.05552 152.91602,533.49171 C 152.49284,533.9214 152.0306,534.67009 151.5293,535.7378 M 150.3379,534.69287 C 150.01888,534.11996 149.64128,533.69029 149.20509,533.40382 C 148.77539,533.11736 148.28386,532.97413 147.73048,532.97412 C 147.07292,532.97413 146.53581,533.19223 146.11915,533.62842 C 145.70248,534.05812 145.49415,534.61477 145.49415,535.29834 C 145.49415,535.9559 145.6862,536.50278 146.07032,536.93897 C 146.45443,537.37517 146.9362,537.59327 147.51563,537.59327 C 148.04297,537.59327 148.51823,537.37843 148.94141,536.94873 C 149.37109,536.51905 149.83659,535.7671 150.3379,534.69287 M 151.03126,536.47998 C 150.56901,537.3654 150.08398,538.01319 149.57618,538.42334 C 149.07487,538.8335 148.51498,539.03858 147.89649,539.03858 C 147.01758,539.03858 146.27214,538.674 145.66016,537.94483 C 145.05469,537.21566 144.75196,536.31397 144.75196,535.23975 C 144.75196,534.10043 145.02214,533.17921 145.56251,532.47608 C 146.10938,531.77296 146.81901,531.4214 147.69141,531.42139 C 148.3099,531.4214 148.86328,531.62322 149.35157,532.02686 C 149.83984,532.424 150.32812,533.08156 150.81641,533.99953 C 151.25911,533.10109 151.73763,532.44028 152.25196,532.01709 C 152.76627,531.58742 153.33919,531.37257 153.97071,531.37256 C 154.83658,531.37257 155.57552,531.74041 156.18751,532.47608 C 156.80598,533.21176 157.11523,534.11996 157.11524,535.20069 C 157.11523,536.3335 156.84179,537.25147 156.29493,537.95459 C 155.75455,538.65121 155.04817,538.99953 154.17579,538.99953 C 153.55729,538.99953 153.00716,538.81072 152.5254,538.43311 C 152.05013,538.049 151.55208,537.39796 151.03126,536.47998"
       id="text2843" />
    <path
       style="font-size:20px;font-style:italic;font-weight:normal;text-align:center;text-anchor:middle;fill:black;fill-opacity:1;stroke:none;stroke-width:1px;stroke-linecap:butt;stroke-linejoin:miter;stroke-opacity:1;font-family:DejaVu Serif"
       d="M 293.25523,527.66162 L 295.3939,538.85303 L 301.85874,527.66162 L 300.21812,527.66162 L 300.42319,526.61671 L 304.70054,526.61671 L 304.49546,527.66162 L 303.07944,527.66162 L 295.24741,541.19678 L 293.56773,541.19678 L 291.0189,527.66162 L 289.56382,527.66162 L 289.7689,526.61671 L 295.0814,526.61671 L 294.87632,527.66162 L 293.25523,527.66162 M 305.12046,532.15382 L 317.63999,532.15382 L 317.63999,533.71631 L 305.12046,533.71631 L 305.12046,532.15382 M 305.12046,536.13819 L 317.63999,536.13819 L 317.63999,537.70069 L 305.12046,537.70069 L 305.12046,536.13819 M 328.69468,535.7378 C 329.02019,536.31723 329.39779,536.75343 329.82749,537.04639 C 330.26368,537.33285 330.75522,537.47608 331.3021,537.47608 C 331.95964,537.47608 332.49675,537.25798 332.91343,536.82178 C 333.33008,536.37908 333.53842,535.81593 333.53843,535.13233 C 333.53842,534.47478 333.34636,533.92791 332.96226,533.49171 C 332.57813,533.05552 332.09636,532.83741 331.51694,532.83741 C 330.98959,532.83741 330.51107,533.05552 330.0814,533.49171 C 329.65821,533.9214 329.19597,534.67009 328.69468,535.7378 M 327.50327,534.69287 C 327.18426,534.11996 326.80665,533.69029 326.37046,533.40382 C 325.94077,533.11736 325.44923,532.97413 324.89585,532.97412 C 324.23829,532.97413 323.70119,533.19223 323.28452,533.62842 C 322.86785,534.05812 322.65952,534.61477 322.65952,535.29834 C 322.65952,535.9559 322.85158,536.50278 323.23569,536.93897 C 323.61981,537.37517 324.10158,537.59327 324.68101,537.59327 C 325.20835,537.59327 325.68361,537.37843 326.10679,536.94873 C 326.53647,536.51905 327.00196,535.7671 327.50327,534.69287 M 328.19663,536.47998 C 327.73438,537.3654 327.24936,538.01319 326.74155,538.42334 C 326.24025,538.8335 325.68035,539.03858 325.06187,539.03858 C 324.18296,539.03858 323.43751,538.674 322.82554,537.94483 C 322.22007,537.21566 321.91733,536.31397 321.91734,535.23975 C 321.91733,534.10043 322.18752,533.17921 322.72788,532.47608 C 323.27475,531.77296 323.98439,531.4214 324.85679,531.42139 C 325.47527,531.4214 326.02866,531.62322 326.51694,532.02686 C 327.00522,532.424 327.4935,533.08156 327.98179,533.99953 C 328.42449,533.10109 328.903,532.44028 329.41734,532.01709 C 329.93165,531.58742 330.50456,531.37257 331.13609,531.37256 C 332.00196,531.37257 332.74089,531.74041 333.35288,532.47608 C 333.97136,533.21176 334.2806,534.11996 334.28062,535.20069 C 334.2806,536.3335 334.00716,537.25147 333.4603,537.95459 C 332.91993,538.65121 332.21355,538.99953 331.34116,538.99953 C 330.72266,538.99953 330.17253,538.81072 329.69077,538.43311 C 329.2155,538.049 328.71746,537.39796 328.19663,536.47998"
       id="text2847" />
    <path
       style="font-size:20px;font-style:italic;font-weight:normal;text-align:center;text-anchor:middle;fill:black;fill-opacity:1;stroke:none;stroke-width:1px;stroke-linecap:butt;stroke-linejoin:miter;stroke-opacity:1;font-family:DejaVu Serif"
       d="M 160.38117,428.35573 L 162.51984,439.54712 L 168.98469,428.35573 L 167.34406,428.35573 L 167.54914,427.31079 L 171.82648,427.31079 L 171.62141,428.35573 L 170.20539,428.35573 L 162.37336,441.89087 L 160.69367,441.89087 L 158.14484,428.35573 L 156.68977,428.35573 L 156.89484,427.31079 L 162.20734,427.31079 L 162.00227,428.35573 L 160.38117,428.35573 M 172.24641,432.8479 L 184.76594,432.8479 L 184.76594,434.4104 L 172.24641,434.4104 L 172.24641,432.8479 M 172.24641,436.83228 L 184.76594,436.83228 L 184.76594,438.39478 L 172.24641,438.39478 L 172.24641,436.83228 M 195.82063,436.43189 C 196.14614,437.01132 196.52374,437.44752 196.95344,437.74048 C 197.38963,438.02694 197.88116,438.17018 198.42805,438.17018 C 199.08559,438.17018 199.6227,437.95207 200.03938,437.51587 C 200.45603,437.07318 200.66436,436.51002 200.66438,435.82642 C 200.66436,435.16887 200.4723,434.622 200.0882,434.18579 C 199.70408,433.7496 199.22231,433.53152 198.64289,433.5315 C 198.11554,433.53152 197.63702,433.7496 197.20734,434.18579 C 196.78416,434.6155 196.32192,435.36419 195.82063,436.43189 M 194.62922,435.38697 C 194.3102,434.81406 193.9326,434.38437 193.49641,434.0979 C 193.06671,433.81146 192.57518,433.66823 192.0218,433.66823 C 191.36424,433.66823 190.82713,433.88632 190.41047,434.32251 C 189.9938,434.75222 189.78547,435.30885 189.78547,435.99244 C 189.78547,436.64999 189.97752,437.19687 190.36164,437.63306 C 190.74575,438.06927 191.22752,438.28736 191.80695,438.28736 C 192.33429,438.28736 192.80955,438.07252 193.23273,437.64283 C 193.66242,437.21314 194.12791,436.4612 194.62922,435.38697 M 195.32258,437.17408 C 194.86033,438.05951 194.37531,438.70728 193.8675,439.11744 C 193.36619,439.5276 192.8063,439.73267 192.18781,439.73267 C 191.3089,439.73267 190.56346,439.36809 189.95148,438.63892 C 189.34601,437.90976 189.04328,437.00806 189.04328,435.93384 C 189.04328,434.79453 189.31346,433.8733 189.85383,433.17018 C 190.4007,432.46706 191.11033,432.1155 191.98273,432.11548 C 192.60122,432.1155 193.1546,432.31731 193.64289,432.72096 C 194.13116,433.11809 194.61945,433.77566 195.10773,434.69362 C 195.55043,433.79519 196.02895,433.13437 196.54328,432.7112 C 197.05759,432.28152 197.63051,432.06667 198.26203,432.06666 C 199.1279,432.06667 199.86684,432.4345 200.47883,433.17018 C 201.0973,433.90585 201.40655,434.81406 201.40656,435.89478 C 201.40655,437.0276 201.13311,437.94556 200.58625,438.64869 C 200.04587,439.3453 199.33949,439.69362 198.46711,439.69362 C 197.84861,439.69362 197.29848,439.50482 196.81672,439.1272 C 196.34145,438.74309 195.8434,438.09206 195.32258,437.17408"
       id="text1915" />
    <path
       style="font-size:20px;font-style:italic;font-weight:normal;text-align:center;text-anchor:middle;fill:black;fill-opacity:1;stroke:none;stroke-width:1px;stroke-linecap:butt;stroke-linejoin:miter;stroke-opacity:1;font-family:DejaVu Serif"
       d="M 248.96384,428.35573 L 251.10252,439.54712 L 257.56736,428.35573 L 255.92673,428.35573 L 256.13181,427.31079 L 260.40916,427.31079 L 260.20408,428.35573 L 258.78806,428.35573 L 250.95603,441.89087 L 249.27634,441.89087 L 246.72752,428.35573 L 245.27244,428.35573 L 245.47752,427.31079 L 250.79002,427.31079 L 250.58494,428.35573 L 248.96384,428.35573 M 260.82908,432.8479 L 273.34861,432.8479 L 273.34861,434.4104 L 260.82908,434.4104 L 260.82908,432.8479 M 260.82908,436.83228 L 273.34861,436.83228 L 273.34861,438.39478 L 260.82908,438.39478 L 260.82908,436.83228 M 284.4033,436.43189 C 284.72881,437.01132 285.10641,437.44752 285.53611,437.74048 C 285.9723,438.02694 286.46383,438.17018 287.01072,438.17018 C 287.66826,438.17018 288.20537,437.95207 288.62205,437.51587 C 289.0387,437.07318 289.24703,436.51002 289.24705,435.82642 C 289.24703,435.16887 289.05498,434.622 288.67088,434.18579 C 288.28675,433.7496 287.80498,433.53152 287.22556,433.5315 C 286.69821,433.53152 286.21969,433.7496 285.79002,434.18579 C 285.36683,434.6155 284.90459,435.36419 284.4033,436.43189 M 283.21189,435.38697 C 282.89287,434.81406 282.51527,434.38437 282.07908,434.0979 C 281.64938,433.81146 281.15785,433.66823 280.60447,433.66823 C 279.94691,433.66823 279.4098,433.88632 278.99314,434.32251 C 278.57647,434.75222 278.36814,435.30885 278.36814,435.99244 C 278.36814,436.64999 278.5602,437.19687 278.94431,437.63306 C 279.32842,438.06927 279.81019,438.28736 280.38963,438.28736 C 280.91696,438.28736 281.39222,438.07252 281.81541,437.64283 C 282.24509,437.21314 282.71058,436.4612 283.21189,435.38697 M 283.90525,437.17408 C 283.443,438.05951 282.95798,438.70728 282.45017,439.11744 C 281.94886,439.5276 281.38897,439.73267 280.77048,439.73267 C 279.89157,439.73267 279.14613,439.36809 278.53416,438.63892 C 277.92869,437.90976 277.62595,437.00806 277.62595,435.93384 C 277.62595,434.79453 277.89613,433.8733 278.4365,433.17018 C 278.98337,432.46706 279.69301,432.1155 280.56541,432.11548 C 281.18389,432.1155 281.73728,432.31731 282.22556,432.72096 C 282.71384,433.11809 283.20212,433.77566 283.69041,434.69362 C 284.13311,433.79519 284.61162,433.13437 285.12595,432.7112 C 285.64027,432.28152 286.21318,432.06667 286.8447,432.06666 C 287.71058,432.06667 288.44951,432.4345 289.0615,433.17018 C 289.67998,433.90585 289.98922,434.81406 289.98923,435.89478 C 289.98922,437.0276 289.71578,437.94556 289.16892,438.64869 C 288.62854,439.3453 287.92217,439.69362 287.04978,439.69362 C 286.43128,439.69362 285.88115,439.50482 285.39939,439.1272 C 284.92412,438.74309 284.42607,438.09206 283.90525,437.17408"
       id="text1919" />
    <path
       style="font-size:20px;font-style:italic;font-weight:normal;text-align:center;text-anchor:middle;fill:black;fill-opacity:1;stroke:none;stroke-width:1px;stroke-linecap:butt;stroke-linejoin:miter;stroke-opacity:1;font-family:DejaVu Serif"
       d="M 349.49284,640.10639 L 348.27213,640.10639 L 352.85221,635.12592 L 350.54752,630.77045 L 349.26823,630.77045 L 349.46354,629.72553 L 352.10026,629.72553 L 354.25846,633.7685 L 357.97916,629.72553 L 359.19987,629.72553 L 354.70768,634.60834 L 357.08073,639.07123 L 358.43815,639.07123 L 358.24284,640.10639 L 355.51823,640.10639 L 353.3112,635.96576 L 349.49284,640.10639"
       id="text2808" />
  </g>
</svg>
