<?xml version="1.0" encoding="UTF-8"?>
<!DOCTYPE svg PUBLIC "-//W3C//DTD SVG 1.1//EN" "http://www.w3.org/Graphics/SVG/1.1/DTD/svg11.dtd">
<svg width="560px" height="560px" viewBox="0 0 560 560" xmlns="http://www.w3.org/2000/svg" version="1.1">
<g stroke-width="3" fill="none">
<path stroke="lightgray" stroke-width="1" d="M0 490H560M0 420H560M0 350H560M0 210H560M0 140H560M0 70H560M70 560V0M140 560V0M210 560V0M350 560V0M420 560V0M490 560V0"/>
<g font-family="Nimbus Mono L,monospace" font-size="16" fill="black" stroke="none">
<g text-anchor="end">
<text x="274.667" y="495.333">-0.75</text>
<text x="274.667" y="425.333">-0.5</text>
<text x="274.667" y="355.333">-0.25</text>
<text x="274.667" y="215.333">0.25</text>
<text x="274.667" y="145.333">0.5</text>
<text x="274.667" y="75.3333">0.75</text>
</g>
<g text-anchor="middle">
<text x="70" y="296">-0.75</text>
<text x="140" y="296">-0.5</text>
<text x="210" y="296">-0.25</text>
<text x="350" y="296">0.25</text>
<text x="420" y="296">0.5</text>
<text x="490" y="296">0.75</text>
</g>
</g>
<path stroke="black" stroke-width="2" d="M0 280H560M280 560V0"/>
<g font-family="Nimbus Mono L,monospace" font-size="24" font-weight="bold" fill="black" stroke="none">
<text x="288" y="24">Y</text>
<text x="552" y="272" text-anchor="end">X</text>
</g>
<path stroke="blue" d="M280 280Q316.867 280 351.849 270.541 386.278 261.231 415.23 243.765 443.341 226.806 462.919 204.233 481.78 182.485 490 158.756 497.932 135.858 494.57 115.355 491.281 95.3013 477.99 82.0101 464.699 68.7189 444.645 65.4303 424.142 62.0678 401.244 70 377.515 78.2199 355.767 97.0812 333.194 116.659 316.235 144.77 298.769 173.722 289.459 208.151 280 243.133 280 280 280 316.867 289.459 351.849 298.769 386.278 316.235 415.23 333.194 443.341 355.767 462.919 377.515 481.78 401.244 490 424.142 497.932 444.645 494.57 464.699 491.281 477.99 477.99 491.281 464.699 494.57 444.645 497.932 424.142 490 401.244 481.78 377.515 462.919 355.767 443.341 333.194 415.23 316.235 386.278 298.769 351.849 289.459 316.867 280 280 280 243.133 280 208.151 289.459 173.722 298.769 144.77 316.235 116.659 333.194 97.0812 355.767 78.2199 377.515 70 401.244 62.0678 424.142 65.4303 444.645 68.7189 464.699 82.0101 477.99 95.3013 491.281 115.355 494.57 135.858 497.932 158.756 490 182.485 481.78 204.233 462.919 226.806 443.341 243.765 415.23 261.231 386.278 270.541 351.849 280 316.867 280 280 280 243.133 270.541 208.151 261.231 173.722 243.765 144.77 226.806 116.659 204.233 97.0812 182.485 78.2199 158.756 70 135.858 62.0678 115.355 65.4303 95.3013 68.7189 82.0101 82.0101 68.7189 95.3013 65.4303 115.355 62.0678 135.858 70 158.756 78.2199 182.485 97.0812 204.233 116.659 226.806 144.77 243.765 173.722 261.231 208.151 270.541 243.133 280 280 280Z"/>
</g>
</svg>
