<?xml version="1.0" standalone="no"?>
<!DOCTYPE svg PUBLIC "-//W3C//DTD SVG 1.1//EN"
  "http://www.w3.org/Graphics/SVG/1.1/DTD/svg11.dtd">
<!-- Created with matplotlib (http://matplotlib.sourceforge.net/) -->
<svg width="286pt" height="276pt" viewBox="0 0 286 276"
   xmlns="http://www.w3.org/2000/svg"
   xmlns:xlink="http://www.w3.org/1999/xlink"
   version="1.1"
   id="svg1">
<title>Three-leaved clover in polar co-ordinates</title>
<filter id="colorAdd"><feComposite in="SourceGraphic" in2="BackgroundImage" operator="arithmetic" k2="1" k3="1"/></filter>
<g id="figure1">
<g id="patch1">
<path style="fill: #ffffff; stroke: #ffffff; stroke-width: 1.000000; stroke-linejoin: round; stroke-linecap: square;  opacity: 1.000000"  d="M0.000000 276.198125L286.205938 276.198125L286.205938 0.000000
L0.000000 0.000000z"/>
</g>
<g id="axes1">
<g id="patch2">
<path style="fill: #ffffff; opacity: 1.000000"  d="M146.794375 249.699062
C176.391041 249.699062 204.779489 237.940182 225.707492 217.012179
C246.635495 196.084176 258.394375 167.695728 258.394375 138.099063
C258.394375 108.502397 246.635495 80.113949 225.707492 59.185946
C204.779489 38.257943 176.391041 26.499063 146.794375 26.499063
C117.197709 26.499063 88.809261 38.257943 67.881258 59.185946
C46.953255 80.113949 35.194375 108.502397 35.194375 138.099063
C35.194375 167.695728 46.953255 196.084176 67.881258 217.012179
C88.809261 237.940182 117.197709 249.699062 146.794375 249.699062z"/>
</g>
<g id="line2d1">
<defs>
  <clipPath id="p641eb501280de489bd81fd695a42f55f">
<path d="M146.794375 249.699062
C176.391041 249.699062 204.779489 237.940182 225.707492 217.012179
C246.635495 196.084176 258.394375 167.695728 258.394375 138.099063
C258.394375 108.502397 246.635495 80.113949 225.707492 59.185946
C204.779489 38.257943 176.391041 26.499063 146.794375 26.499063
C117.197709 26.499063 88.809261 38.257943 67.881258 59.185946
C46.953255 80.113949 35.194375 108.502397 35.194375 138.099063
C35.194375 167.695728 46.953255 196.084176 67.881258 217.012179
C88.809261 237.940182 117.197709 249.699062 146.794375 249.699062z"/>
  </clipPath>
</defs><path style="fill: none; stroke: #ff0000; stroke-width: 1.000000; stroke-linejoin: round; stroke-linecap: square;  opacity: 1.000000" clip-path="url(#p641eb501280de489bd81fd695a42f55f)" d="M258.394375 138.099063L256.111311 131.080682L249.389012 124.870949
L238.600224 120.219875L224.340264 117.764136L207.389894 117.979964
L188.666747 121.146818L169.168438 127.324282L149.911044 136.343787
L131.866896 147.815775L115.905698 161.151881L102.742738 175.600767
L92.897500 190.295275L86.665289 204.307868L84.103644 216.710753
L85.034320 226.636745L89.060629 233.336916L95.598895 236.231212
L103.921900 234.948729L113.211365 229.354950L122.615969 219.564134
L131.311043 205.935972L138.555944 189.056669L143.745329 169.705613
L146.450905 148.809726L146.450905 127.388399L143.745329 106.492512
L138.555944 87.141456L131.311043 70.262153L122.615969 56.633991
L113.211365 46.843175L103.921900 41.249396L95.598895 39.966913
L89.060629 42.861209L85.034320 49.561380L84.103644 59.487372
L86.665289 71.890257L92.897500 85.902850L102.742738 100.597358
L115.905698 115.046244L131.866896 128.382350L149.911044 139.854338
L169.168438 148.873843L188.666747 155.051307L207.389894 158.218161
L224.340264 158.433989L238.600224 155.978250L249.389012 151.327176
L256.111311 145.117443L258.394375 138.099063"/>
</g>
<g id="matplotlib.axis1">
<g id="xtick1">
<g id="line2d2">
<path style="fill: none; stroke: #000000; stroke-width: 0.500000; stroke-linejoin: round; stroke-linecap: butt; stroke-dasharray: 1.000000,3.000000; stroke-dashoffset: 0.000000; opacity: 1.000000" clip-path="url(#p641eb501280de489bd81fd695a42f55f)" d="M146.794375 138.099063L258.394375 138.099063"/>
</g>
<g id="text1">
<defs>
<path id="c_7a2040fe3b94fcd41d0a72c84e93b115" d="M31.781250 -66.406250q-7.609375 0.000000 -11.453125 7.500000q-3.828125 7.484375 -3.828125 22.531250q0.000000 14.984375 3.828125 22.484375q3.843750 7.500000 11.453125 7.500000q7.671875 0.000000 11.500000 -7.500000q3.843750 -7.500000 3.843750 -22.484375q0.000000 -15.046875 -3.843750 -22.531250q-3.828125 -7.500000 -11.500000 -7.500000M31.781250 -74.218750q12.265625 0.000000 18.734375 9.703125q6.468750 9.687500 6.468750 28.140625q0.000000 18.406250 -6.468750 28.109375q-6.468750 9.687500 -18.734375 9.687500q-12.250000 0.000000 -18.718750 -9.687500q-6.468750 -9.703125 -6.468750 -28.109375q0.000000 -18.453125 6.468750 -28.140625q6.468750 -9.703125 18.718750 -9.703125"/>
<path id="c_40880da00a2fb346f185ce8104650367" d="M25.000000 -67.921875q-3.906250 0.000000 -6.593750 2.718750q-2.687500 2.703125 -2.687500 6.609375q0.000000 3.859375 2.687500 6.515625q2.687500 2.656250 6.593750 2.656250q3.906250 0.000000 6.593750 -2.656250q2.687500 -2.656250 2.687500 -6.515625q0.000000 -3.859375 -2.718750 -6.593750q-2.703125 -2.734375 -6.562500 -2.734375M25.000000 -74.218750q3.125000 0.000000 6.000000 1.203125q2.890625 1.187500 4.984375 3.437500q2.250000 2.187500 3.375000 4.984375q1.125000 2.781250 1.125000 6.000000q0.000000 6.437500 -4.515625 10.906250q-4.515625 4.468750 -11.062500 4.468750q-6.593750 0.000000 -11.000000 -4.390625q-4.390625 -4.390625 -4.390625 -10.984375q0.000000 -6.546875 4.484375 -11.078125q4.500000 -4.546875 11.000000 -4.546875"/>
</defs>
<g style="fill: #000000; opacity: 1.000000" transform="translate(263.702813,142.466250)scale(0.120000)">
<use xlink:href="#c_7a2040fe3b94fcd41d0a72c84e93b115"/>
<use xlink:href="#c_40880da00a2fb346f185ce8104650367" x="63.623047"/>
</g>
</g>
</g>
<g id="xtick2">
<g id="line2d3">
<path style="fill: none; stroke: #000000; stroke-width: 0.500000; stroke-linejoin: round; stroke-linecap: butt; stroke-dasharray: 1.000000,3.000000; stroke-dashoffset: 0.000000; opacity: 1.000000" clip-path="url(#p641eb501280de489bd81fd695a42f55f)" d="M146.794375 138.099063L225.707492 59.185946"/>
</g>
<g id="text2">
<defs>
<path id="c_a0416418d96557a09b8c1332d34883ba" d="M37.796875 -64.312500l-24.906250 38.921875l24.906250 0.000000zM35.203125 -72.906250l12.406250 0.000000l0.000000 47.515625l10.406250 0.000000l0.000000 8.203125l-10.406250 0.000000l0.000000 17.187500l-9.812500 0.000000l0.000000 -17.187500l-32.906250 0.000000l0.000000 -9.515625z"/>
<path id="c_1260a2df50f305f3db244e29828f968e" d="M10.796875 -72.906250l38.718750 0.000000l0.000000 8.312500l-29.687500 0.000000l0.000000 17.859375q2.140625 -0.734375 4.281250 -1.093750q2.156250 -0.359375 4.312500 -0.359375q12.203125 0.000000 19.328125 6.687500q7.140625 6.687500 7.140625 18.109375q0.000000 11.765625 -7.328125 18.296875q-7.328125 6.515625 -20.656250 6.515625q-4.593750 0.000000 -9.359375 -0.781250q-4.750000 -0.781250 -9.828125 -2.343750l0.000000 -9.921875q4.390625 2.390625 9.078125 3.562500q4.687500 1.171875 9.906250 1.171875q8.453125 0.000000 13.375000 -4.437500q4.937500 -4.437500 4.937500 -12.062500q0.000000 -7.609375 -4.937500 -12.046875q-4.921875 -4.453125 -13.375000 -4.453125q-3.953125 0.000000 -7.890625 0.875000q-3.921875 0.875000 -8.015625 2.734375z"/>
</defs>
<g style="fill: #000000; opacity: 1.000000" transform="translate(223.825366,55.661822)scale(0.120000)">
<use xlink:href="#c_a0416418d96557a09b8c1332d34883ba"/>
<use xlink:href="#c_1260a2df50f305f3db244e29828f968e" x="63.623047"/>
<use xlink:href="#c_40880da00a2fb346f185ce8104650367" x="127.246094"/>
</g>
</g>
</g>
<g id="xtick3">
<g id="line2d4">
<path style="fill: none; stroke: #000000; stroke-width: 0.500000; stroke-linejoin: round; stroke-linecap: butt; stroke-dasharray: 1.000000,3.000000; stroke-dashoffset: 0.000000; opacity: 1.000000" clip-path="url(#p641eb501280de489bd81fd695a42f55f)" d="M146.794375 138.099063L146.794375 26.499063"/>
</g>
<g id="text3">
<defs>
<path id="c_cd96f817f3cab988d24a2b49a5577fe6" d="M10.984375 -1.515625l0.000000 -8.984375q3.718750 1.765625 7.515625 2.687500q3.812500 0.921875 7.484375 0.921875q9.765625 0.000000 14.906250 -6.562500q5.156250 -6.562500 5.890625 -19.953125q-2.828125 4.203125 -7.187500 6.453125q-4.343750 2.250000 -9.609375 2.250000q-10.937500 0.000000 -17.312500 -6.609375q-6.375000 -6.625000 -6.375000 -18.109375q0.000000 -11.218750 6.640625 -18.000000q6.640625 -6.796875 17.671875 -6.796875q12.656250 0.000000 19.312500 9.703125q6.671875 9.687500 6.671875 28.140625q0.000000 17.234375 -8.187500 27.515625q-8.171875 10.281250 -21.984375 10.281250q-3.718750 0.000000 -7.531250 -0.734375q-3.796875 -0.734375 -7.906250 -2.203125M30.609375 -32.421875q6.640625 0.000000 10.515625 -4.531250q3.890625 -4.546875 3.890625 -12.468750q0.000000 -7.859375 -3.890625 -12.421875q-3.875000 -4.562500 -10.515625 -4.562500q-6.640625 0.000000 -10.515625 4.562500q-3.875000 4.562500 -3.875000 12.421875q0.000000 7.921875 3.875000 12.468750q3.875000 4.531250 10.515625 4.531250"/>
</defs>
<g style="fill: #000000; opacity: 1.000000" transform="translate(137.099063,19.706250)scale(0.120000)">
<use xlink:href="#c_cd96f817f3cab988d24a2b49a5577fe6"/>
<use xlink:href="#c_7a2040fe3b94fcd41d0a72c84e93b115" x="63.623047"/>
<use xlink:href="#c_40880da00a2fb346f185ce8104650367" x="127.246094"/>
</g>
</g>
</g>
<g id="xtick4">
<g id="line2d5">
<path style="fill: none; stroke: #000000; stroke-width: 0.500000; stroke-linejoin: round; stroke-linecap: butt; stroke-dasharray: 1.000000,3.000000; stroke-dashoffset: 0.000000; opacity: 1.000000" clip-path="url(#p641eb501280de489bd81fd695a42f55f)" d="M146.794375 138.099063L67.881258 59.185946"/>
</g>
<g id="text4">
<defs>
<path id="c_42baa63129a918535c52adb20d687ea7" d="M12.406250 -8.296875l16.109375 0.000000l0.000000 -55.625000l-17.531250 3.515625l0.000000 -8.984375l17.437500 -3.515625l9.859375 0.000000l0.000000 64.609375l16.109375 0.000000l0.000000 8.296875l-41.984375 0.000000z"/>
<path id="c_3dcfa38a02242cb63ec6726c6e70be7a" d="M40.578125 -39.312500q7.078125 1.515625 11.046875 6.312500q3.984375 4.781250 3.984375 11.812500q0.000000 10.781250 -7.421875 16.703125q-7.421875 5.906250 -21.093750 5.906250q-4.578125 0.000000 -9.437500 -0.906250q-4.859375 -0.906250 -10.031250 -2.718750l0.000000 -9.515625q4.093750 2.390625 8.968750 3.609375q4.890625 1.218750 10.218750 1.218750q9.265625 0.000000 14.125000 -3.656250q4.859375 -3.656250 4.859375 -10.640625q0.000000 -6.453125 -4.515625 -10.078125q-4.515625 -3.640625 -12.562500 -3.640625l-8.500000 0.000000l0.000000 -8.109375l8.890625 0.000000q7.265625 0.000000 11.125000 -2.906250q3.859375 -2.906250 3.859375 -8.375000q0.000000 -5.609375 -3.984375 -8.609375q-3.968750 -3.015625 -11.390625 -3.015625q-4.062500 0.000000 -8.703125 0.890625q-4.640625 0.875000 -10.203125 2.718750l0.000000 -8.781250q5.625000 -1.562500 10.531250 -2.343750q4.906250 -0.781250 9.250000 -0.781250q11.234375 0.000000 17.765625 5.109375q6.546875 5.093750 6.546875 13.781250q0.000000 6.062500 -3.468750 10.234375q-3.468750 4.171875 -9.859375 5.781250"/>
</defs>
<g style="fill: #000000; opacity: 1.000000" transform="translate(46.755572,55.661822)scale(0.120000)">
<use xlink:href="#c_42baa63129a918535c52adb20d687ea7"/>
<use xlink:href="#c_3dcfa38a02242cb63ec6726c6e70be7a" x="63.623047"/>
<use xlink:href="#c_1260a2df50f305f3db244e29828f968e" x="127.246094"/>
<use xlink:href="#c_40880da00a2fb346f185ce8104650367" x="190.869141"/>
</g>
</g>
</g>
<g id="xtick5">
<g id="line2d6">
<path style="fill: none; stroke: #000000; stroke-width: 0.500000; stroke-linejoin: round; stroke-linecap: butt; stroke-dasharray: 1.000000,3.000000; stroke-dashoffset: 0.000000; opacity: 1.000000" clip-path="url(#p641eb501280de489bd81fd695a42f55f)" d="M146.794375 138.099063L35.194375 138.099062"/>
</g>
<g id="text5">
<defs>
<path id="c_bef35738d52871942e50b9de9b122bab" d="M31.781250 -34.625000q-7.031250 0.000000 -11.062500 3.765625q-4.015625 3.765625 -4.015625 10.343750q0.000000 6.593750 4.015625 10.359375q4.031250 3.765625 11.062500 3.765625q7.031250 0.000000 11.078125 -3.781250q4.062500 -3.796875 4.062500 -10.343750q0.000000 -6.578125 -4.031250 -10.343750q-4.015625 -3.765625 -11.109375 -3.765625M21.921875 -38.812500q-6.343750 -1.562500 -9.890625 -5.906250q-3.531250 -4.359375 -3.531250 -10.609375q0.000000 -8.734375 6.218750 -13.812500q6.234375 -5.078125 17.062500 -5.078125q10.890625 0.000000 17.093750 5.078125q6.203125 5.078125 6.203125 13.812500q0.000000 6.250000 -3.546875 10.609375q-3.531250 4.343750 -9.828125 5.906250q7.125000 1.656250 11.093750 6.500000q3.984375 4.828125 3.984375 11.796875q0.000000 10.609375 -6.468750 16.281250q-6.468750 5.656250 -18.531250 5.656250q-12.046875 0.000000 -18.531250 -5.656250q-6.468750 -5.671875 -6.468750 -16.281250q0.000000 -6.968750 4.000000 -11.796875q4.015625 -4.843750 11.140625 -6.500000M18.312500 -54.390625q0.000000 5.656250 3.531250 8.828125q3.546875 3.171875 9.937500 3.171875q6.359375 0.000000 9.937500 -3.171875q3.593750 -3.171875 3.593750 -8.828125q0.000000 -5.671875 -3.593750 -8.843750q-3.578125 -3.171875 -9.937500 -3.171875q-6.390625 0.000000 -9.937500 3.171875q-3.531250 3.171875 -3.531250 8.843750"/>
</defs>
<g style="fill: #000000; opacity: 1.000000" transform="translate(10.800000,142.466250)scale(0.120000)">
<use xlink:href="#c_42baa63129a918535c52adb20d687ea7"/>
<use xlink:href="#c_bef35738d52871942e50b9de9b122bab" x="63.623047"/>
<use xlink:href="#c_7a2040fe3b94fcd41d0a72c84e93b115" x="127.246094"/>
<use xlink:href="#c_40880da00a2fb346f185ce8104650367" x="190.869141"/>
</g>
</g>
</g>
<g id="xtick6">
<g id="line2d7">
<path style="fill: none; stroke: #000000; stroke-width: 0.500000; stroke-linejoin: round; stroke-linecap: butt; stroke-dasharray: 1.000000,3.000000; stroke-dashoffset: 0.000000; opacity: 1.000000" clip-path="url(#p641eb501280de489bd81fd695a42f55f)" d="M146.794375 138.099063L67.881258 217.012179"/>
</g>
<g id="text6">
<defs>
<path id="c_ed3f3ed3ebfbd18bcb9c012009a68ad1" d="M19.187500 -8.296875l34.421875 0.000000l0.000000 8.296875l-46.281250 0.000000l0.000000 -8.296875q5.609375 -5.812500 15.296875 -15.593750q9.703125 -9.796875 12.187500 -12.640625q4.734375 -5.312500 6.609375 -9.000000q1.890625 -3.687500 1.890625 -7.250000q0.000000 -5.812500 -4.078125 -9.468750q-4.078125 -3.671875 -10.625000 -3.671875q-4.640625 0.000000 -9.796875 1.609375q-5.140625 1.609375 -11.000000 4.890625l0.000000 -9.968750q5.953125 -2.390625 11.125000 -3.609375q5.187500 -1.218750 9.484375 -1.218750q11.328125 0.000000 18.062500 5.671875q6.734375 5.656250 6.734375 15.125000q0.000000 4.500000 -1.687500 8.531250q-1.671875 4.015625 -6.125000 9.484375q-1.218750 1.421875 -7.765625 8.187500q-6.531250 6.765625 -18.453125 18.921875"/>
</defs>
<g style="fill: #000000; opacity: 1.000000" transform="translate(46.536822,229.270678)scale(0.120000)">
<use xlink:href="#c_ed3f3ed3ebfbd18bcb9c012009a68ad1"/>
<use xlink:href="#c_ed3f3ed3ebfbd18bcb9c012009a68ad1" x="63.623047"/>
<use xlink:href="#c_1260a2df50f305f3db244e29828f968e" x="127.246094"/>
<use xlink:href="#c_40880da00a2fb346f185ce8104650367" x="190.869141"/>
</g>
</g>
</g>
<g id="xtick7">
<g id="line2d8">
<path style="fill: none; stroke: #000000; stroke-width: 0.500000; stroke-linejoin: round; stroke-linecap: butt; stroke-dasharray: 1.000000,3.000000; stroke-dashoffset: 0.000000; opacity: 1.000000" clip-path="url(#p641eb501280de489bd81fd695a42f55f)" d="M146.794375 138.099063L146.794375 249.699062"/>
</g>
<g id="text7">
<defs>
<path id="c_956f18cfdaf972f35a6c2b4aaac2532b" d="M8.203125 -72.906250l46.875000 0.000000l0.000000 4.203125l-26.468750 68.703125l-10.296875 0.000000l24.906250 -64.593750l-35.015625 0.000000z"/>
</defs>
<g style="fill: #000000; opacity: 1.000000" transform="translate(133.341250,265.226250)scale(0.120000)">
<use xlink:href="#c_ed3f3ed3ebfbd18bcb9c012009a68ad1"/>
<use xlink:href="#c_956f18cfdaf972f35a6c2b4aaac2532b" x="63.623047"/>
<use xlink:href="#c_7a2040fe3b94fcd41d0a72c84e93b115" x="127.246094"/>
<use xlink:href="#c_40880da00a2fb346f185ce8104650367" x="190.869141"/>
</g>
</g>
</g>
<g id="xtick8">
<g id="line2d9">
<path style="fill: none; stroke: #000000; stroke-width: 0.500000; stroke-linejoin: round; stroke-linecap: butt; stroke-dasharray: 1.000000,3.000000; stroke-dashoffset: 0.000000; opacity: 1.000000" clip-path="url(#p641eb501280de489bd81fd695a42f55f)" d="M146.794375 138.099063L225.707492 217.012179"/>
</g>
<g id="text8">
<g style="fill: #000000; opacity: 1.000000" transform="translate(220.169116,229.270678)scale(0.120000)">
<use xlink:href="#c_3dcfa38a02242cb63ec6726c6e70be7a"/>
<use xlink:href="#c_42baa63129a918535c52adb20d687ea7" x="63.623047"/>
<use xlink:href="#c_1260a2df50f305f3db244e29828f968e" x="127.246094"/>
<use xlink:href="#c_40880da00a2fb346f185ce8104650367" x="190.869141"/>
</g>
</g>
</g>
</g>
<g id="matplotlib.axis2">
<g id="ytick1">
<g id="line2d10">
<path style="fill: none; stroke: #000000; stroke-width: 0.500000; stroke-linejoin: round; stroke-linecap: butt; stroke-dasharray: 1.000000,3.000000; stroke-dashoffset: 0.000000; opacity: 1.000000" clip-path="url(#p641eb501280de489bd81fd695a42f55f)" d="M169.114375 138.099063L168.992104 135.765987L168.626629 133.458474
L168.021956 131.201803L167.184710 129.020701L166.124062 126.939063
L164.851634 124.979696L163.381368 123.164067L161.729370 121.512070
L159.913742 120.041803L157.954375 118.769375L155.872737 117.708728
L153.691634 116.871481L151.434964 116.266808L149.127450 115.901334
L146.794375 115.779063L144.461300 115.901334L142.153786 116.266808
L139.897116 116.871481L137.716013 117.708728L135.634375 118.769375
L133.675008 120.041803L131.859380 121.512070L130.207382 123.164067
L128.737116 124.979696L127.464688 126.939063L126.404040 129.020701
L125.566794 131.201803L124.962121 133.458474L124.596646 135.765987
L124.474375 138.099063L124.596646 140.432138L124.962121 142.739651
L125.566794 144.996322L126.404040 147.177424L127.464688 149.259062
L128.737116 151.218429L130.207382 153.034058L131.859380 154.686055
L133.675008 156.156322L135.634375 157.428750L137.716013 158.489397
L139.897116 159.326644L142.153786 159.931317L144.461300 160.296791
L146.794375 160.419062L149.127450 160.296791L151.434964 159.931317
L153.691634 159.326644L155.872737 158.489397L157.954375 157.428750
L159.913742 156.156322L161.729370 154.686055L163.381368 153.034058
L164.851634 151.218429L166.124062 149.259062L167.184710 147.177424
L168.021956 144.996322L168.626629 142.739651L168.992104 140.432138
L169.114375 138.099063L169.114375 138.099063"/>
</g>
<g id="text9">
<defs>
<path id="c_ed3e21196fb739f392806f09ca0594ef" d="M10.687500 -12.406250l10.312500 0.000000l0.000000 12.406250l-10.312500 0.000000z"/>
</defs>
<g style="fill: #000000; opacity: 1.000000" transform="translate(164.023739,131.789382)scale(0.120000)">
<use xlink:href="#c_7a2040fe3b94fcd41d0a72c84e93b115"/>
<use xlink:href="#c_ed3e21196fb739f392806f09ca0594ef" x="63.623047"/>
<use xlink:href="#c_ed3f3ed3ebfbd18bcb9c012009a68ad1" x="95.410156"/>
</g>
</g>
</g>
<g id="ytick2">
<g id="line2d11">
<path style="fill: none; stroke: #000000; stroke-width: 0.500000; stroke-linejoin: round; stroke-linecap: butt; stroke-dasharray: 1.000000,3.000000; stroke-dashoffset: 0.000000; opacity: 1.000000" clip-path="url(#p641eb501280de489bd81fd695a42f55f)" d="M191.434375 138.099063L191.407182 136.541149L191.325634 134.985134
L190.999942 131.886375L190.458884 128.817885L189.705097 125.794611
L188.742254 122.831283L187.575044 119.942339L186.209156 117.141852
L184.651242 114.443467L182.908894 111.860329L180.990599 109.405024
L178.905704 107.089513L176.664365 104.925077L174.277503 102.922262
L171.756746 101.090825L169.114375 99.439688L166.363263 97.976896
L163.516813 96.709575L160.588894 95.643900L157.593768 94.785061
L154.546030 94.137244L151.460526 93.703605L148.352289 93.486256
L145.236461 93.486256L142.128224 93.703605L139.042720 94.137244
L135.994982 94.785061L132.999856 95.643900L130.071937 96.709575
L127.225487 97.976896L124.474375 99.439688L121.832004 101.090825
L119.311247 102.922262L116.924385 104.925077L114.683046 107.089513
L112.598151 109.405024L110.679856 111.860329L108.937508 114.443467
L107.379594 117.141852L106.013706 119.942339L104.846496 122.831283
L103.883653 125.794611L103.129866 128.817885L102.588808 131.886375
L102.263116 134.985134L102.154375 138.099063L102.263116 141.212991
L102.588808 144.311750L103.129866 147.380240L103.883653 150.403514
L104.846496 153.366842L106.013706 156.255786L107.379594 159.056273
L108.937508 161.754658L110.679856 164.337796L112.598151 166.793101
L114.683046 169.108612L116.924385 171.273048L119.311247 173.275863
L121.832004 175.107300L124.474375 176.758437L127.225487 178.221229
L130.071937 179.488550L132.999856 180.554225L135.994982 181.413064
L139.042720 182.060881L142.128224 182.494520L145.236461 182.711869
L148.352289 182.711869L151.460526 182.494520L154.546030 182.060881
L157.593768 181.413064L160.588894 180.554225L163.516813 179.488550
L166.363263 178.221229L169.114375 176.758437L171.756746 175.107300
L174.277503 173.275863L176.664365 171.273048L178.905704 169.108612
L180.990599 166.793101L182.908894 164.337796L184.651242 161.754658
L186.209156 159.056273L187.575044 156.255786L188.742254 153.366842
L189.705097 150.403514L190.458884 147.380240L190.999942 144.311750
L191.325634 141.212991L191.434375 138.099063L191.434375 138.099063"/>
</g>
<g id="text10">
<g style="fill: #000000; opacity: 1.000000" transform="translate(184.379105,123.247888)scale(0.120000)">
<use xlink:href="#c_7a2040fe3b94fcd41d0a72c84e93b115"/>
<use xlink:href="#c_ed3e21196fb739f392806f09ca0594ef" x="63.623047"/>
<use xlink:href="#c_a0416418d96557a09b8c1332d34883ba" x="95.410156"/>
</g>
</g>
</g>
<g id="ytick3">
<g id="line2d12">
<path style="fill: none; stroke: #000000; stroke-width: 0.500000; stroke-linejoin: round; stroke-linecap: butt; stroke-dasharray: 1.000000,3.000000; stroke-dashoffset: 0.000000; opacity: 1.000000" clip-path="url(#p641eb501280de489bd81fd695a42f55f)" d="M213.754375 138.099063L213.713585 135.762192L213.591264 133.428169
L213.102725 128.780032L212.291138 124.177296L211.160458 119.642385
L209.716193 115.197394L207.965379 110.863977L205.916546 106.663247
L203.579676 102.615669L200.966153 98.740962L198.088711 95.058004
L194.961368 91.584738L191.599360 88.338085L188.019067 85.333862
L184.237932 82.586707L180.274375 80.110001L176.147707 77.915813
L171.878032 76.014832L167.486153 74.416318L162.993465 73.128061
L158.421857 72.156335L153.793601 71.505876L149.131245 71.179853
L144.457505 71.179853L139.795149 71.505876L135.166893 72.156335
L130.595285 73.128061L126.102597 74.416318L121.710718 76.014832
L117.441043 77.915813L113.314375 80.110001L109.350818 82.586707
L105.569683 85.333862L101.989390 88.338085L98.627382 91.584738
L95.500039 95.058004L92.622597 98.740962L90.009074 102.615669
L87.672204 106.663247L85.623371 110.863977L83.872557 115.197394
L82.428292 119.642385L81.297612 124.177296L80.486025 128.780032
L79.997486 133.428169L79.834375 138.099063L79.997486 142.769956
L80.486025 147.418093L81.297612 152.020829L82.428292 156.555740
L83.872557 161.000731L85.623371 165.334148L87.672204 169.534878
L90.009074 173.582456L92.622597 177.457163L95.500039 181.140121
L98.627382 184.613387L101.989390 187.860040L105.569683 190.864263
L109.350818 193.611418L113.314375 196.088124L117.441043 198.282312
L121.710718 200.183293L126.102597 201.781807L130.595285 203.070064
L135.166893 204.041790L139.795149 204.692249L144.457505 205.018272
L149.131245 205.018272L153.793601 204.692249L158.421857 204.041790
L162.993465 203.070064L167.486153 201.781807L171.878032 200.183293
L176.147707 198.282312L180.274375 196.088124L184.237932 193.611418
L188.019067 190.864263L191.599360 187.860040L194.961368 184.613387
L198.088711 181.140121L200.966153 177.457163L203.579676 173.582456
L205.916546 169.534878L207.965379 165.334148L209.716193 161.000731
L211.160458 156.555740L212.291138 152.020829L213.102725 147.418093
L213.591264 142.769956L213.754375 138.099063L213.754375 138.099063"/>
</g>
<g id="text11">
<defs>
<path id="c_cc8d6d580d1b10c8632f7a42cd53db8a" d="M33.015625 -40.375000q-6.640625 0.000000 -10.531250 4.546875q-3.875000 4.531250 -3.875000 12.437500q0.000000 7.859375 3.875000 12.437500q3.890625 4.562500 10.531250 4.562500q6.640625 0.000000 10.515625 -4.562500q3.875000 -4.578125 3.875000 -12.437500q0.000000 -7.906250 -3.875000 -12.437500q-3.875000 -4.546875 -10.515625 -4.546875M52.593750 -71.296875l0.000000 8.984375q-3.718750 -1.750000 -7.500000 -2.671875q-3.781250 -0.937500 -7.500000 -0.937500q-9.765625 0.000000 -14.921875 6.593750q-5.140625 6.593750 -5.875000 19.921875q2.875000 -4.250000 7.218750 -6.515625q4.359375 -2.265625 9.578125 -2.265625q10.984375 0.000000 17.359375 6.671875q6.375000 6.656250 6.375000 18.125000q0.000000 11.234375 -6.640625 18.031250q-6.640625 6.781250 -17.671875 6.781250q-12.656250 0.000000 -19.343750 -9.687500q-6.687500 -9.703125 -6.687500 -28.109375q0.000000 -17.281250 8.203125 -27.562500q8.203125 -10.281250 22.015625 -10.281250q3.718750 0.000000 7.500000 0.734375q3.781250 0.734375 7.890625 2.187500"/>
</defs>
<g style="fill: #000000; opacity: 1.000000" transform="translate(205.046971,114.706394)scale(0.120000)">
<use xlink:href="#c_7a2040fe3b94fcd41d0a72c84e93b115"/>
<use xlink:href="#c_ed3e21196fb739f392806f09ca0594ef" x="63.623047"/>
<use xlink:href="#c_cc8d6d580d1b10c8632f7a42cd53db8a" x="95.410156"/>
</g>
</g>
</g>
<g id="ytick4">
<g id="line2d13">
<path style="fill: none; stroke: #000000; stroke-width: 0.500000; stroke-linejoin: round; stroke-linecap: butt; stroke-dasharray: 1.000000,3.000000; stroke-dashoffset: 0.000000; opacity: 1.000000" clip-path="url(#p641eb501280de489bd81fd695a42f55f)" d="M236.074375 138.099063L236.019988 134.983235L235.856893 131.871205
L235.205508 125.673688L234.123393 119.536707L232.615819 113.490159
L230.690132 107.563504L228.355713 101.785615L225.623936 96.184641
L222.508109 90.787871L219.023412 85.621595L215.186823 80.710985
L211.017032 76.079963L206.534356 71.751092L201.760632 67.745462
L196.719117 64.082588L191.434375 60.780314L185.932151 57.854730
L180.239252 55.320088L174.383412 53.188737L168.393162 51.471060
L162.297684 50.175426L156.126676 49.308148L149.910202 48.873449
L143.678548 48.873449L137.462074 49.308148L131.291066 50.175426
L125.195588 51.471060L119.205338 53.188737L113.349498 55.320088
L107.656599 57.854730L102.154375 60.780314L96.869633 64.082588
L91.828118 67.745462L87.054394 71.751092L82.571718 76.079963
L78.401927 80.710985L74.565338 85.621595L71.080641 90.787871
L67.964814 96.184641L65.233037 101.785615L62.898618 107.563504
L60.972931 113.490159L59.465357 119.536707L58.383242 125.673688
L57.731857 131.871205L57.514375 138.099063L57.731857 144.326920
L58.383242 150.524437L59.465357 156.661418L60.972931 162.707966
L62.898618 168.634621L65.233037 174.412510L67.964814 180.013484
L71.080641 185.410254L74.565338 190.576530L78.401927 195.487140
L82.571718 200.118162L87.054394 204.447033L91.828118 208.452663
L96.869633 212.115537L102.154375 215.417811L107.656599 218.343395
L113.349498 220.878037L119.205338 223.009388L125.195588 224.727065
L131.291066 226.022699L137.462074 226.889977L143.678548 227.324676
L149.910202 227.324676L156.126676 226.889977L162.297684 226.022699
L168.393162 224.727065L174.383412 223.009388L180.239252 220.878037
L185.932151 218.343395L191.434375 215.417811L196.719117 212.115537
L201.760632 208.452663L206.534356 204.447033L211.017032 200.118162
L215.186823 195.487140L219.023412 190.576530L222.508109 185.410254
L225.623936 180.013484L228.355713 174.412510L230.690132 168.634621
L232.615819 162.707966L234.123393 156.661418L235.205508 150.524437
L235.856893 144.326920L236.074375 138.099063L236.074375 138.099063"/>
</g>
<g id="text12">
<g style="fill: #000000; opacity: 1.000000" transform="translate(225.699212,106.164900)scale(0.120000)">
<use xlink:href="#c_7a2040fe3b94fcd41d0a72c84e93b115"/>
<use xlink:href="#c_ed3e21196fb739f392806f09ca0594ef" x="63.623047"/>
<use xlink:href="#c_bef35738d52871942e50b9de9b122bab" x="95.410156"/>
</g>
</g>
</g>
<g id="ytick5">
<g id="line2d14">
<path style="fill: none; stroke: #000000; stroke-width: 0.500000; stroke-linejoin: round; stroke-linecap: butt; stroke-dasharray: 1.000000,3.000000; stroke-dashoffset: 0.000000; opacity: 1.000000" clip-path="url(#p641eb501280de489bd81fd695a42f55f)" d="M258.394375 138.099063L258.326391 134.204279L258.122523 130.314240
L257.783019 126.433686L257.308291 122.567344L256.698920 118.719926
L255.955647 114.896118L255.079378 111.100579L254.071180 107.337934
L252.932282 103.612766L251.664071 99.929615L250.268093 96.292967
L248.746048 92.707253L247.099791 89.176843L245.331326 85.706036
L243.442810 82.299063L241.436543 78.960073L239.314968 75.693134
L237.080672 72.502228L234.736375 69.391242L232.284935 66.363965
L229.729338 63.424087L227.072697 60.575188L224.318249 57.820741
L221.469351 55.164100L218.529472 52.608503L215.502196 50.157062
L212.391209 47.812766L209.200303 45.578469L205.933365 43.456895
L202.594375 41.450627L199.187401 39.562111L195.716595 37.793647
L192.186184 36.147389L188.600471 34.625344L184.963823 33.229366
L181.280672 31.961155L177.555504 30.822257L173.792859 29.814059
L169.997320 28.937790L166.173512 28.194517L162.326093 27.585146
L158.459752 27.110419L154.579197 26.770914L150.689159 26.567046
L146.794375 26.499063L142.899591 26.567046L139.009553 26.770914
L135.128998 27.110419L131.262657 27.585146L127.415238 28.194517
L123.591430 28.937790L119.795891 29.814059L116.033246 30.822257
L112.308078 31.961155L108.624927 33.229366L104.988279 34.625344
L101.402566 36.147389L97.872155 37.793647L94.401349 39.562111
L90.994375 41.450627L87.655385 43.456895L84.388447 45.578469
L81.197541 47.812766L78.086554 50.157062L75.059278 52.608503
L72.119399 55.164100L69.270501 57.820741L66.516053 60.575188
L63.859412 63.424087L61.303815 66.363965L58.852375 69.391242
L56.508078 72.502228L54.273782 75.693134L52.152207 78.960073
L50.145940 82.299063L48.257424 85.706036L46.488959 89.176843
L44.842702 92.707253L43.320657 96.292967L41.924679 99.929615
L40.656468 103.612766L39.517570 107.337934L38.509372 111.100579
L37.633103 114.896118L36.889830 118.719926L36.280459 122.567344
L35.805731 126.433686L35.466227 130.314240L35.262359 134.204279
L35.194375 138.099063L35.262359 141.993846L35.466227 145.883885
L35.805731 149.764439L36.280459 153.630781L36.889830 157.478199
L37.633103 161.302007L38.509372 165.097546L39.517570 168.860191
L40.656468 172.585359L41.924679 176.268510L43.320657 179.905158
L44.842702 183.490872L46.488959 187.021282L48.257424 190.492089
L50.145940 193.899063L52.152207 197.238052L54.273782 200.504991
L56.508078 203.695897L58.852375 206.806883L61.303815 209.834160
L63.859412 212.774038L66.516053 215.622937L69.270501 218.377384
L72.119399 221.034025L75.059278 223.589622L78.086554 226.041063
L81.197541 228.385359L84.388447 230.619656L87.655385 232.741230
L90.994375 234.747498L94.401349 236.636014L97.872155 238.404478
L101.402566 240.050736L104.988279 241.572781L108.624927 242.968759
L112.308078 244.236970L116.033246 245.375868L119.795891 246.384066
L123.591430 247.260335L127.415238 248.003608L131.262657 248.612979
L135.128998 249.087706L139.009553 249.427211L142.899591 249.631079
L146.794375 249.699062L150.689159 249.631079L154.579197 249.427211
L158.459752 249.087706L162.326093 248.612979L166.173512 248.003608
L169.997320 247.260335L173.792859 246.384066L177.555504 245.375868
L181.280672 244.236970L184.963823 242.968759L188.600471 241.572781
L192.186184 240.050736L195.716595 238.404478L199.187401 236.636014
L202.594375 234.747498L205.933365 232.741230L209.200303 230.619656
L212.391209 228.385359L215.502196 226.041063L218.529472 223.589622
L221.469351 221.034025L224.318249 218.377384L227.072697 215.622937
L229.729338 212.774038L232.284935 209.834160L234.736375 206.806883
L237.080672 203.695897L239.314968 200.504991L241.436543 197.238052
L243.442810 193.899063L245.331326 190.492089L247.099791 187.021282
L248.746048 183.490872L250.268093 179.905158L251.664071 176.268510
L252.932282 172.585359L254.071180 168.860191L255.079378 165.097546
L255.955647 161.302007L256.698920 157.478199L257.308291 153.630781
L257.783019 149.764439L258.122523 145.883885L258.326391 141.993846
L258.394375 138.099063L258.394375 138.099063"/>
</g>
<g id="text13">
<g style="fill: #000000; opacity: 1.000000" transform="translate(246.562391,97.623405)scale(0.120000)">
<use xlink:href="#c_42baa63129a918535c52adb20d687ea7"/>
<use xlink:href="#c_ed3e21196fb739f392806f09ca0594ef" x="63.623047"/>
<use xlink:href="#c_7a2040fe3b94fcd41d0a72c84e93b115" x="95.410156"/>
</g>
</g>
</g>
</g>
<g id="patch3">
<path style="fill: none; stroke: #000000; stroke-width: 1.000000; stroke-linejoin: round; stroke-linecap: square;  opacity: 1.000000"  d="M146.794375 249.699062
C176.391041 249.699062 204.779489 237.940182 225.707492 217.012179
C246.635495 196.084176 258.394375 167.695728 258.394375 138.099063
C258.394375 108.502397 246.635495 80.113949 225.707492 59.185946
C204.779489 38.257943 176.391041 26.499063 146.794375 26.499063
C117.197709 26.499063 88.809261 38.257943 67.881258 59.185946
C46.953255 80.113949 35.194375 108.502397 35.194375 138.099063
C35.194375 167.695728 46.953255 196.084176 67.881258 217.012179
C88.809261 237.940182 117.197709 249.699062 146.794375 249.699062z"/>
</g>
</g>
</g>
</svg>
